<svg enable-background="new 0 0 32 32" viewBox="0 0 32 32" xmlns="http://www.w3.org/2000/svg">
  <style>.st0{display:none;fill:#fff}.st1{fill:url(#a)}.st2{fill:#fff}.st3{fill:url(#SVGID_2_)}</style>
  <rect class="st0" height="2e3" width="2e3" x="-1977" y="-34"/>
  <linearGradient gradientUnits="userSpaceOnUse" id="a" x1="16.273" x2="15.85" y1=".0574" y2="24.736">
    <stop offset="0" stop-color="#bd0000"/>
    <stop offset=".2726" stop-color="#b70000"/>
    <stop offset=".6487" stop-color="#a50000"/>
    <stop offset="1" stop-color="#8e0000"/>
  </linearGradient>
  <path class="st1" d="m31.84 18.94-2.2-1.39c.06-.51.09-1.03.09-1.55.0-.68-.05-1.35-.15-2l2.13-1.34c.01-.01.02-.02.01-.04l-1.15-3.53c0-.02-.02-.02-.03-.02l-2.6.17c-.59-1.04-1.31-1.99-2.14-2.84l.94-2.34c0-.01.0-.03-.01-.04l-3-2.18c-.01-.01-.03-.01-.04.0l-2 1.67c-1.07-.49-2.21-.84-3.4-1.04l-.62-2.44c0-.01-.02-.02-.03-.02h-3.71c-.02.0-.03.01-.03.02l-.64 2.52c-1.18.24-2.31.63-3.36 1.15l-1.93-1.61c-.01-.01-.03-.01-.04.0l-3 2.18c-.02.01-.02.02-.02.04l.97 2.42c-.8.87-1.49 1.85-2.04 2.9l-2.52-.16c-.02.0-.03.01-.03.02l-1.15 3.53c0 .02.0.03.01.04l2.2 1.39c-.05.51-.08 1.03-.08 1.55.0.68.05 1.35.15 2l-2.13 1.34c-.01.01-.02.02-.01.04l1.15 3.53c0 .02.02.02.03.02l2.6-.17c.59 1.04 1.31 1.99 2.14 2.84l-.94 2.34c0 .01.0.03.01.04l3 2.18c.01.01.03.01.04.0l2-1.67c1.07.49 2.21.84 3.4 1.04l.62 2.44c0 .01.02.02.03.02h3.71c.02.0.03-.01.03-.02l.64-2.52c1.18-.24 2.31-.63 3.36-1.15l1.94 1.61c.01.01.03.01.04.0l3-2.18c.01-.01.02-.02.01-.04l-.97-2.42c.8-.87 1.49-1.85 2.04-2.9l2.51.17c.02.0.03-.01.03-.02l1.15-3.53c.01-.03.01-.04-.01-.05z"/>
  <polygon class="st2" points="10.91 7.79 20.74 7.79 20.74 5.35 8.48 5.35 8.48 26.56 10.91 26.56 10.91 15.9 19.99 15.9 20.35 15.9 12.79 24.13 12.78 24.13 12.78 24.14 12.78 24.14 12.78 24.14 12.78 24.88 12.78 26.54 12.78 26.56 23.66 26.56 23.66 24.13 23.66 24.13 16.09 24.13 23.65 15.9 23.66 15.9 23.66 15.13 23.66 13.46 10.91 13.46"/>
</svg>
